<svg width="122.87999999999998" height="91.43" xmlns="http://www.w3.org/2000/svg" xml:space="preserve" version="1.1">

 <g>
  <title>Layer 1</title>
  <g stroke="null" id="svg_1">
   <path stroke="null" fill="#ffffff" id="svg_2" clip-rule="evenodd" fill-rule="evenodd" d="m98.58,42.86l21.83,0c1.36,0 2.47,1.11 2.47,2.47l0,15.42c0,1.36 -1.11,2.47 -2.47,2.47l-21.83,0c-1.36,0 -2.47,-1.11 -2.47,-2.47l0,-15.43c0,-1.35 1.11,-2.46 2.47,-2.46l0,0l0,0zm-85.19,-7.43c7.4,0 13.39,6 13.39,13.39s-6,13.39 -13.39,13.39s-13.39,-5.99 -13.39,-13.38s6,-13.4 13.39,-13.4l0,0l0,0zm-1.85,6.66l1.64,0c0.3,0 0.55,0.25 0.55,0.55l0,6.31l5.76,0c0.3,0 0.55,0.25 0.55,0.55l0,1.64c0,0.3 -0.25,0.55 -0.55,0.55l-8.49,0l0,-9.04c-0.01,-0.32 0.24,-0.56 0.54,-0.56l0,0l0,0zm1.85,-3.61c5.72,0 10.35,4.63 10.35,10.35c0,5.72 -4.63,10.35 -10.35,10.35c-5.72,0 -10.35,-4.63 -10.35,-10.35c0,-5.72 4.64,-10.35 10.35,-10.35l0,0l0,0zm39.12,39.29c3.38,9.96 17.53,10.33 20.71,0c3.75,3.36 14.82,4.05 18.94,6.35c1.3,0.72 2.48,1.66 3.43,2.9c0.63,0.84 1.48,2.39 2.12,4.12l-69.7,0c0.64,-1.73 1.49,-3.28 2.12,-4.12c0.95,-1.25 2.12,-2.17 3.43,-2.9c4.13,-2.31 15.2,-2.99 18.95,-6.35l0,0l0,0l0,0zm14.19,-62.12c0.59,-0.1 0.66,-0.09 1.15,0.03l0,-10.33l-11.2,3.01l0,12.67c0.01,0.07 0.01,0.15 0.01,0.22l0,0c0,1.8 -2.38,3.59 -4.71,3.99c-2.33,0.4 -4.22,-0.73 -4.22,-2.53c0,-1.8 1.89,-3.59 4.22,-3.99c0.88,-0.15 1.69,-0.08 2.37,0.15l0,-15.26l0.1,0l15.76,-3.61l0,17.35c0.03,0.14 0.04,0.27 0.04,0.41c0,0 0,0 0,0c0,1.5 -1.58,3 -3.52,3.33c-1.95,0.34 -3.52,-0.61 -3.52,-2.11c0,-1.5 1.57,-3 3.52,-3.33l0,0l0,0l0,0zm-16.79,41.48c-0.71,0.03 -1.24,0.18 -1.61,0.42c-0.21,0.15 -0.36,0.32 -0.47,0.54c-0.11,0.24 -0.17,0.53 -0.16,0.86c0.03,0.97 0.54,2.25 1.52,3.72l0.01,0.02l0,0l3.2,5.09c1.28,2.04 2.63,4.12 4.31,5.65c1.6,1.47 3.56,2.46 6.14,2.47c2.79,0.01 4.84,-1.02 6.5,-2.58c1.73,-1.61 3.08,-3.83 4.43,-6.03l3.6,-5.94c0.67,-1.53 0.92,-2.56 0.77,-3.17c-0.09,-0.36 -0.49,-0.54 -1.16,-0.57c-0.15,-0.01 -0.29,-0.01 -0.43,0c-0.17,0 -0.33,0.01 -0.51,0.03c-0.09,0.01 -0.19,0 -0.28,-0.02c-0.32,0.02 -0.65,0 -0.99,-0.05l1.22,-4.95c-9.16,1.45 -16.02,-5.36 -25.71,-1.37l0.69,5.93c-0.35,0.01 -0.73,0 -1.07,-0.05l0,0l0,0l0,0zm28.32,-1.15c0.89,0.27 1.46,0.84 1.69,1.75c0.26,1 -0.02,2.43 -0.88,4.38l0,0c-0.02,0.03 -0.03,0.07 -0.05,0.1l-3.65,6.01c-1.41,2.32 -2.84,4.64 -4.74,6.42c-1.98,1.84 -4.41,3.07 -7.73,3.07c-3.1,-0.01 -5.44,-1.19 -7.36,-2.95c-1.85,-1.7 -3.27,-3.88 -4.62,-6.02l-3.2,-5.09c-1.17,-1.75 -1.78,-3.34 -1.81,-4.65c-0.02,-0.62 0.08,-1.18 0.31,-1.67c0.24,-0.52 0.61,-0.94 1.1,-1.28c0.23,-0.16 0.49,-0.29 0.78,-0.39c-0.21,-2.76 -0.29,-5.73 -0.16,-8.64c0.07,-0.69 0.2,-1.39 0.39,-2.07c0.82,-2.93 2.87,-4.26 5.41,-5.88c1.4,-0.89 2.94,-1.56 4.53,-2.02c0.29,-0.08 4.27,-9.5 17.05,4.32c1.78,1.93 2.89,3.46 3.14,6.83l-0.2,7.78l0,0l0,0l0,0zm-62.04,32.17c0.53,1.17 0,2.55 -1.17,3.07c-1.17,0.53 -2.55,0 -3.07,-1.17c-1.3,-2.91 -2.37,-5.94 -3.15,-9.06c-0.77,-3.06 -1.28,-6.24 -1.51,-9.49c-0.04,-0.57 -0.07,-1.23 -0.1,-1.98c-0.03,-0.8 -0.04,-1.46 -0.04,-1.98c0,-1.28 1.05,-2.33 2.33,-2.33c1.28,0 2.33,1.05 2.33,2.33c0,0.76 0.01,1.36 0.02,1.81c0.02,0.52 0.05,1.13 0.1,1.81c0.21,2.97 0.68,5.88 1.39,8.68c0.72,2.89 1.68,5.67 2.87,8.31l0,0l0,0zm10.3,-56.15c-0.9,0.91 -2.38,0.91 -3.29,0.01c-0.91,-0.9 -0.91,-2.38 -0.01,-3.29c2.24,-2.24 5.17,-4.72 8.29,-6.88c2.74,-1.89 5.64,-3.55 8.37,-4.61c1.2,-0.47 2.55,0.13 3,1.32c0.47,1.2 -0.13,2.55 -1.32,3c-2.37,0.92 -4.94,2.39 -7.41,4.1c-2.87,2 -5.58,4.29 -7.63,6.35l0,0l0,0zm56.34,-10.35c-1.17,-0.53 -1.7,-1.9 -1.17,-3.07c0.53,-1.17 1.9,-1.7 3.07,-1.17c4.26,1.93 8.25,4.39 11.85,7.29c3.63,2.92 6.88,6.3 9.67,10.05c0.77,1.03 0.55,2.48 -0.49,3.25c-1.04,0.77 -2.48,0.55 -3.25,-0.49c-2.55,-3.43 -5.53,-6.51 -8.85,-9.19c-3.28,-2.66 -6.92,-4.9 -10.83,-6.67l0,0l0,0zm29.48,49.68c0.09,-1.28 1.2,-2.25 2.48,-2.16c1.28,0.09 2.25,1.2 2.16,2.48c-0.24,3.18 -0.75,6.27 -1.49,9.26c-0.77,3.06 -1.79,6.02 -3.04,8.85c-0.52,1.18 -1.89,1.71 -3.07,1.19c-1.18,-0.52 -1.71,-1.89 -1.19,-3.07c1.15,-2.6 2.09,-5.31 2.78,-8.1c0.7,-2.72 1.16,-5.55 1.37,-8.45l0,0l0,0zm-4.31,-22.89l6,4.18c0.1,0.06 0.19,0.15 0.26,0.25c0.28,0.41 0.18,0.96 -0.23,1.25l-5.97,4.13c-0.15,0.13 -0.35,0.2 -0.57,0.2c-0.5,0 -0.9,-0.4 -0.9,-0.9l0,-8.38l0,0c0,-0.18 0.05,-0.36 0.16,-0.51c0.29,-0.41 0.85,-0.51 1.25,-0.22l0,0l0,0z" class="st0"/>
  </g>
 </g>
</svg>